<?xml version="1.0" encoding="utf-8"?>
<!-- Generator: Adobe Illustrator 16.0.0, SVG Export Plug-In . SVG Version: 6.00 Build 0)  -->
<!DOCTYPE svg PUBLIC "-//W3C//DTD SVG 1.1//EN" "http://www.w3.org/Graphics/SVG/1.1/DTD/svg11.dtd">
<svg version="1.1" xmlns="http://www.w3.org/2000/svg" xmlns:xlink="http://www.w3.org/1999/xlink" x="0px" y="0px" width="859px"
	 height="286px" viewBox="-107.5 5.5 859 286" enable-background="new -107.5 5.5 859 286" xml:space="preserve">
<g id="Layer_1">
</g>
<g id="Layer_2">
	<g>
		<rect x="70.591" y="93.152" fill="#0686EF" width="68.819" height="23.951"/>
		<path fill="#0686EF" d="M24.201,86.415v2.432c-0.9-0.55-1.888-0.927-3.003-0.927c-3.306,0-5.979,2.678-5.979,5.979v22.456
			c0,3.3,2.674,5.979,5.979,5.979c1.116,0,2.104-0.377,3.003-0.927v2.432c0,6.1,4.576,11.077,10.472,11.817V74.598
			C28.777,75.339,24.201,80.315,24.201,86.415z"/>
		<path fill="#0686EF" d="M188.803,87.92c-1.117,0-2.104,0.376-3.004,0.927v-2.432c0-6.1-4.575-11.076-10.472-11.817v61.06
			c5.897-0.742,10.472-5.717,10.472-11.817v-2.432c0.901,0.55,1.888,0.927,3.004,0.927c3.306,0,5.979-2.677,5.979-5.979V93.901
			C194.781,90.598,192.109,87.92,188.803,87.92z"/>
		<path fill="#0686EF" d="M52.628,55.759c-6.604,0-11.967,5.362-11.967,11.974v74.787c0,6.612,5.362,11.976,11.967,11.976
			c6.612,0,11.976-5.363,11.976-11.976V67.733C64.604,61.121,59.24,55.759,52.628,55.759z"/>
		<path fill="#0686EF" d="M157.372,55.759c-6.612,0-11.977,5.362-11.977,11.974v74.787c0,6.612,5.364,11.976,11.977,11.976
			c6.604,0,11.966-5.363,11.966-11.976V67.733C169.338,61.121,163.977,55.759,157.372,55.759z"/>
		<path fill="#0686EF" d="M104.447,98.982c-6.612,0-11.976,8.645-11.976,19.305v120.578c0,10.661,5.363,19.308,11.976,19.308
			c6.603,0,11.966-8.646,11.966-19.308V118.288C116.412,107.627,111.049,98.982,104.447,98.982z"/>
	</g>
</g>
<g id="Layer_3">
	<text transform="matrix(0.6971 0 0 1 -85.2332 244.3848)" fill="#F7AF0F" font-family="'Multicolore'" font-size="297.2526">F</text>
</g>
<g id="Layer_4">
	<text transform="matrix(1 0 0 1 230.5002 182.6455)" fill="#F7AF0F" font-family="'Multicolore'" font-size="107.3253">fitness</text>
</g>
<g id="Layer_5">
	<text transform="matrix(1 0 0 1 186.5012 234.9238)" fill="#0686EF" font-family="'Multicolore'" font-size="42.9743">assessoria esportiva</text>
</g>
</svg>
