<?xml version="1.0" encoding="utf-8"?>
<!-- Generator: Adobe Illustrator 16.0.0, SVG Export Plug-In . SVG Version: 6.00 Build 0)  -->
<!DOCTYPE svg PUBLIC "-//W3C//DTD SVG 1.1//EN" "http://www.w3.org/Graphics/SVG/1.1/DTD/svg11.dtd">
<svg version="1.1" id="Layer_1" xmlns="http://www.w3.org/2000/svg" xmlns:xlink="http://www.w3.org/1999/xlink" x="0px" y="0px"
	 width="324px" height="286px" viewBox="0 0 324 286" enable-background="new 0 0 324 286" xml:space="preserve">
<g id="Layer_1_1_">
</g>
<g id="T">
	<g>
		<rect x="174.591" y="90.152" fill="#0686EF" width="68.819" height="23.951"/>
		<path fill="#0686EF" d="M128.201,83.415v2.432c-0.9-0.55-1.889-0.927-3.003-0.927c-3.307,0-5.979,2.678-5.979,5.979v22.456
			c0,3.3,2.674,5.979,5.979,5.979c1.115,0,2.104-0.377,3.003-0.927v2.432c0,6.1,4.575,11.077,10.472,11.817V71.598
			C132.777,72.339,128.201,77.315,128.201,83.415z"/>
		<path fill="#0686EF" d="M292.803,84.92c-1.117,0-2.104,0.376-3.004,0.927v-2.432c0-6.1-4.575-11.076-10.472-11.817v61.06
			c5.896-0.742,10.472-5.717,10.472-11.817v-2.432c0.901,0.55,1.888,0.927,3.004,0.927c3.306,0,5.979-2.677,5.979-5.979V90.901
			C298.781,87.598,296.109,84.92,292.803,84.92z"/>
		<path fill="#0686EF" d="M156.628,52.759c-6.604,0-11.967,5.362-11.967,11.974v74.787c0,6.612,5.361,11.976,11.967,11.976
			c6.612,0,11.976-5.363,11.976-11.976V64.733C168.604,58.121,163.24,52.759,156.628,52.759z"/>
		<path fill="#0686EF" d="M261.372,52.759c-6.612,0-11.978,5.362-11.978,11.974v74.787c0,6.612,5.364,11.976,11.978,11.976
			c6.604,0,11.966-5.363,11.966-11.976V64.733C273.338,58.121,267.977,52.759,261.372,52.759z"/>
		<path fill="#0686EF" d="M208.447,95.982c-6.611,0-11.976,8.645-11.976,19.305v120.578c0,10.66,5.363,19.308,11.976,19.308
			c6.604,0,11.967-8.646,11.967-19.308V115.288C220.412,104.627,215.049,95.982,208.447,95.982z"/>
	</g>
</g>
<g id="Layer_3">
	<text transform="matrix(0.6971 0 0 1 18.7664 241.3848)" fill="#F7AF0F" font-family="'Multicolore'" font-size="297.2526">F</text>
</g>
</svg>
